<svg xmlns="http://www.w3.org/2000/svg" xmlns:xlink="http://www.w3.org/1999/xlink" width="1500" zoomAndPan="magnify" viewBox="0 0 375 374.999991" height="1500" preserveAspectRatio="xMidYMid meet" version="1.0"><defs><g/><clipPath id="ffda5971da"><path d="M 313 161 L 321 161 L 321 173 L 313 173 Z M 313 161 " clip-rule="nonzero"/></clipPath><clipPath id="5078f87d89"><path d="M 315.574219 141.625 L 334.226562 143.550781 L 331.070312 174.140625 L 312.417969 172.214844 Z M 315.574219 141.625 " clip-rule="nonzero"/></clipPath><clipPath id="3e3ca5b3cc"><path d="M 315.574219 141.625 L 334.226562 143.550781 L 331.070312 174.140625 L 312.417969 172.214844 Z M 315.574219 141.625 " clip-rule="nonzero"/></clipPath><clipPath id="3c131dbf05"><path d="M 315.574219 141.625 L 334.226562 143.550781 L 331.070312 174.140625 L 312.417969 172.214844 Z M 315.574219 141.625 " clip-rule="nonzero"/></clipPath><clipPath id="71ff3dc000"><path d="M 314 151 L 330 151 L 330 164 L 314 164 Z M 314 151 " clip-rule="nonzero"/></clipPath><clipPath id="fa9d78712f"><path d="M 315.574219 141.625 L 334.226562 143.550781 L 331.070312 174.140625 L 312.417969 172.214844 Z M 315.574219 141.625 " clip-rule="nonzero"/></clipPath><clipPath id="bcff1c1f4a"><path d="M 315.574219 141.625 L 334.226562 143.550781 L 331.070312 174.140625 L 312.417969 172.214844 Z M 315.574219 141.625 " clip-rule="nonzero"/></clipPath><clipPath id="9579a49dfa"><path d="M 315.574219 141.625 L 334.226562 143.550781 L 331.070312 174.140625 L 312.417969 172.214844 Z M 315.574219 141.625 " clip-rule="nonzero"/></clipPath><clipPath id="003ca5b08f"><path d="M 318 145 L 332 145 L 332 159 L 318 159 Z M 318 145 " clip-rule="nonzero"/></clipPath><clipPath id="99465510cd"><path d="M 315.574219 141.625 L 334.226562 143.550781 L 331.070312 174.140625 L 312.417969 172.214844 Z M 315.574219 141.625 " clip-rule="nonzero"/></clipPath><clipPath id="7983734a4f"><path d="M 315.574219 141.625 L 334.226562 143.550781 L 331.070312 174.140625 L 312.417969 172.214844 Z M 315.574219 141.625 " clip-rule="nonzero"/></clipPath><clipPath id="646ad24dce"><path d="M 315.574219 141.625 L 334.226562 143.550781 L 331.070312 174.140625 L 312.417969 172.214844 Z M 315.574219 141.625 " clip-rule="nonzero"/></clipPath><clipPath id="494fe91bcd"><path d="M 323 143 L 334 143 L 334 151 L 323 151 Z M 323 143 " clip-rule="nonzero"/></clipPath><clipPath id="098e678b20"><path d="M 315.574219 141.625 L 334.226562 143.550781 L 331.070312 174.140625 L 312.417969 172.214844 Z M 315.574219 141.625 " clip-rule="nonzero"/></clipPath><clipPath id="f1acb21d78"><path d="M 315.574219 141.625 L 334.226562 143.550781 L 331.070312 174.140625 L 312.417969 172.214844 Z M 315.574219 141.625 " clip-rule="nonzero"/></clipPath><clipPath id="4a1643f5a6"><path d="M 315.574219 141.625 L 334.226562 143.550781 L 331.070312 174.140625 L 312.417969 172.214844 Z M 315.574219 141.625 " clip-rule="nonzero"/></clipPath><clipPath id="dbae4a4091"><path d="M 312 142 L 334 142 L 334 173 L 312 173 Z M 312 142 " clip-rule="nonzero"/></clipPath><clipPath id="80ad0fd514"><path d="M 315.574219 141.625 L 334.226562 143.550781 L 331.070312 174.140625 L 312.417969 172.214844 Z M 315.574219 141.625 " clip-rule="nonzero"/></clipPath><clipPath id="a5aaf11910"><path d="M 315.574219 141.625 L 334.226562 143.550781 L 331.070312 174.140625 L 312.417969 172.214844 Z M 315.574219 141.625 " clip-rule="nonzero"/></clipPath><clipPath id="cae8696f22"><path d="M 315.574219 141.625 L 334.226562 143.550781 L 331.070312 174.140625 L 312.417969 172.214844 Z M 315.574219 141.625 " clip-rule="nonzero"/></clipPath><clipPath id="fa8ae01522"><path d="M 315.574219 141.65625 L 334.261719 143.585938 L 331.109375 174.113281 L 312.421875 172.183594 Z M 315.574219 141.65625 " clip-rule="nonzero"/></clipPath><clipPath id="4052db8ae8"><path d="M 315.574219 141.65625 L 334.222656 143.582031 L 331.070312 174.109375 L 312.421875 172.183594 Z M 315.574219 141.65625 " clip-rule="nonzero"/></clipPath></defs><g fill="#000000" fill-opacity="1"><g transform="translate(88.174108, 209.705636)"><g><path d="M 29.53125 -36.421875 C 29.84375 -39.304688 31.878906 -40.75 35.640625 -40.75 C 37.648438 -40.75 39.144531 -40.59375 40.125 -40.28125 C 41.101562 -39.96875 41.785156 -39.425781 42.171875 -38.65625 C 42.554688 -37.882812 42.785156 -37.203125 42.859375 -36.609375 C 42.941406 -36.015625 42.984375 -35.125 42.984375 -33.9375 L 42.984375 -6.875 C 42.984375 -5.695312 42.941406 -4.8125 42.859375 -4.21875 C 42.785156 -3.625 42.570312 -2.941406 42.21875 -2.171875 C 41.488281 -0.828125 39.71875 -0.15625 36.90625 -0.15625 C 34.101562 -0.15625 32.222656 -0.5 31.265625 -1.1875 C 30.316406 -1.882812 29.765625 -2.90625 29.609375 -4.25 C 27.703125 -1.519531 24.519531 -0.15625 20.0625 -0.15625 C 15.601562 -0.15625 11.46875 -2.191406 7.65625 -6.265625 C 3.84375 -10.335938 1.9375 -15.066406 1.9375 -20.453125 C 1.9375 -25.835938 3.851562 -30.550781 7.6875 -34.59375 C 11.53125 -38.644531 15.742188 -40.671875 20.328125 -40.671875 C 22.085938 -40.671875 23.6875 -40.359375 25.125 -39.734375 C 26.570312 -39.117188 27.578125 -38.539062 28.140625 -38 C 28.703125 -37.457031 29.164062 -36.929688 29.53125 -36.421875 Z M 15.46875 -20.328125 C 15.46875 -18.628906 16.132812 -17.097656 17.46875 -15.734375 C 18.8125 -14.367188 20.4375 -13.6875 22.34375 -13.6875 C 24.25 -13.6875 25.832031 -14.378906 27.09375 -15.765625 C 28.351562 -17.160156 28.984375 -18.695312 28.984375 -20.375 C 28.984375 -22.050781 28.378906 -23.609375 27.171875 -25.046875 C 25.960938 -26.492188 24.335938 -27.21875 22.296875 -27.21875 C 20.265625 -27.21875 18.617188 -26.492188 17.359375 -25.046875 C 16.097656 -23.609375 15.46875 -22.035156 15.46875 -20.328125 Z M 15.46875 -20.328125 "/></g></g></g><g fill="#000000" fill-opacity="1"><g transform="translate(135.406149, 209.705636)"><g><path d="M 3.40625 -3.640625 C 2.425781 -4.253906 1.9375 -5.226562 1.9375 -6.5625 C 1.9375 -7.90625 2.914062 -9.941406 4.875 -12.671875 C 5.4375 -13.554688 6.347656 -14 7.609375 -14 C 8.878906 -14 10.59375 -13.363281 12.75 -12.09375 C 14.914062 -10.832031 16.875 -10.203125 18.625 -10.203125 C 21.769531 -10.203125 23.34375 -10.820312 23.34375 -12.0625 C 23.34375 -13.039062 21.617188 -13.757812 18.171875 -14.21875 C 14.921875 -14.6875 11.695312 -15.898438 8.5 -17.859375 C 7.007812 -18.785156 5.773438 -20.238281 4.796875 -22.21875 C 3.816406 -24.207031 3.328125 -26.566406 3.328125 -29.296875 C 3.328125 -37.441406 8.914062 -41.515625 20.09375 -41.515625 C 23.757812 -41.515625 27.523438 -40.640625 31.390625 -38.890625 C 33.191406 -38.066406 34.09375 -37.035156 34.09375 -35.796875 C 34.09375 -34.554688 33.523438 -33.035156 32.390625 -31.234375 C 31.253906 -29.429688 30.097656 -28.53125 28.921875 -28.53125 C 28.296875 -28.53125 27.144531 -28.914062 25.46875 -29.6875 C 23.800781 -30.457031 21.988281 -30.84375 20.03125 -30.84375 C 16.988281 -30.84375 15.46875 -30.273438 15.46875 -29.140625 C 15.46875 -27.597656 17.21875 -26.59375 20.71875 -26.125 C 24.125 -25.769531 27.421875 -24.789062 30.609375 -23.1875 C 32.109375 -22.46875 33.359375 -21.21875 34.359375 -19.4375 C 35.367188 -17.664062 35.875 -15.4375 35.875 -12.75 C 35.875 -10.070312 35.367188 -7.789062 34.359375 -5.90625 C 33.359375 -4.03125 31.957031 -2.628906 30.15625 -1.703125 C 26.851562 -0.0976562 22.710938 0.703125 17.734375 0.703125 C 12.765625 0.703125 7.988281 -0.742188 3.40625 -3.640625 Z M 3.40625 -3.640625 "/></g></g></g><g fill="#000000" fill-opacity="1"><g transform="translate(174.36682, 209.705636)"><g><path d="M 27.0625 -20.40625 L 37.34375 -11.90625 C 38.632812 -10.820312 39.445312 -9.992188 39.78125 -9.421875 C 40.113281 -8.859375 40.28125 -8.320312 40.28125 -7.8125 C 40.28125 -6.570312 39.484375 -4.894531 37.890625 -2.78125 C 36.128906 -0.613281 34.582031 0.46875 33.25 0.46875 C 32.113281 0.46875 30.539062 -0.28125 28.53125 -1.78125 L 27.75 -2.3125 C 26.570312 -3.289062 24.742188 -5.003906 22.265625 -7.453125 C 19.796875 -9.910156 17.914062 -11.648438 16.625 -12.671875 L 16.625 -6.71875 C 16.625 -5.539062 16.582031 -4.65625 16.5 -4.0625 C 16.425781 -3.46875 16.179688 -2.785156 15.765625 -2.015625 C 15.097656 -0.671875 13.113281 0 9.8125 0 C 6.570312 0 4.585938 -0.695312 3.859375 -2.09375 C 3.503906 -2.863281 3.285156 -3.546875 3.203125 -4.140625 C 3.128906 -4.734375 3.09375 -5.617188 3.09375 -6.796875 L 3.09375 -53.109375 C 3.09375 -54.296875 3.128906 -55.1875 3.203125 -55.78125 C 3.285156 -56.375 3.503906 -57.054688 3.859375 -57.828125 C 4.585938 -59.222656 6.597656 -59.921875 9.890625 -59.921875 C 12.367188 -59.921875 14.125 -59.484375 15.15625 -58.609375 C 16.03125 -57.878906 16.492188 -56.742188 16.546875 -55.203125 C 16.597656 -54.734375 16.625 -54.007812 16.625 -53.03125 L 16.625 -28.53125 C 17.550781 -29.300781 18.953125 -30.613281 20.828125 -32.46875 C 22.710938 -34.320312 24.117188 -35.640625 25.046875 -36.421875 L 25.984375 -37.03125 C 27.785156 -38.425781 29.328125 -39.125 30.609375 -39.125 C 31.898438 -39.125 33.382812 -38.078125 35.0625 -35.984375 C 36.738281 -33.898438 37.578125 -32.265625 37.578125 -31.078125 C 37.578125 -29.890625 36.625 -28.5 34.71875 -26.90625 Z M 27.0625 -20.40625 "/></g></g></g><g fill="#000000" fill-opacity="1"><g transform="translate(216.960705, 209.705636)"><g><path d="M 3.09375 -33.9375 C 3.09375 -35.125 3.128906 -36.015625 3.203125 -36.609375 C 3.285156 -37.203125 3.503906 -37.882812 3.859375 -38.65625 C 4.585938 -40 6.597656 -40.671875 9.890625 -40.671875 C 12.367188 -40.671875 14.125 -40.234375 15.15625 -39.359375 C 16.03125 -38.628906 16.492188 -37.519531 16.546875 -36.03125 C 16.597656 -35.507812 16.625 -34.757812 16.625 -33.78125 L 16.625 -6.71875 C 16.625 -5.539062 16.582031 -4.65625 16.5 -4.0625 C 16.425781 -3.46875 16.179688 -2.785156 15.765625 -2.015625 C 15.097656 -0.671875 13.113281 0 9.8125 0 C 6.570312 0 4.585938 -0.695312 3.859375 -2.09375 C 3.503906 -2.863281 3.285156 -3.53125 3.203125 -4.09375 C 3.128906 -4.664062 3.09375 -5.566406 3.09375 -6.796875 Z M 15.8125 -48.28125 C 15.425781 -47.53125 14.742188 -47 13.765625 -46.6875 C 12.785156 -46.382812 11.484375 -46.234375 9.859375 -46.234375 C 8.234375 -46.234375 6.929688 -46.382812 5.953125 -46.6875 C 4.972656 -47 4.289062 -47.539062 3.90625 -48.3125 C 3.519531 -49.09375 3.285156 -49.78125 3.203125 -50.375 C 3.128906 -50.96875 3.09375 -51.851562 3.09375 -53.03125 C 3.09375 -54.21875 3.128906 -55.109375 3.203125 -55.703125 C 3.285156 -56.296875 3.503906 -56.953125 3.859375 -57.671875 C 4.585938 -59.066406 6.597656 -59.765625 9.890625 -59.765625 C 13.140625 -59.765625 15.097656 -59.066406 15.765625 -57.671875 C 16.179688 -56.898438 16.425781 -56.21875 16.5 -55.625 C 16.582031 -55.03125 16.625 -54.140625 16.625 -52.953125 C 16.625 -51.773438 16.582031 -50.890625 16.5 -50.296875 C 16.425781 -49.703125 16.195312 -49.03125 15.8125 -48.28125 Z M 15.8125 -48.28125 "/></g></g></g><g fill="#000000" fill-opacity="1"><g transform="translate(237.832589, 209.705636)"><g><path d="M 26.90625 -40.671875 C 30.457031 -40.671875 32.546875 -39.691406 33.171875 -37.734375 C 33.472656 -36.753906 33.625 -35.460938 33.625 -33.859375 C 33.625 -32.265625 33.457031 -30.988281 33.125 -30.03125 C 32.789062 -29.082031 32.265625 -28.398438 31.546875 -27.984375 C 30.460938 -27.367188 28.890625 -27.0625 26.828125 -27.0625 L 21.875 -27.375 L 21.875 -6.65625 C 21.875 -4.695312 21.628906 -3.238281 21.140625 -2.28125 C 20.648438 -1.320312 19.898438 -0.6875 18.890625 -0.375 C 17.890625 -0.0703125 16.59375 0.078125 15 0.078125 C 13.40625 0.078125 12.128906 -0.0859375 11.171875 -0.421875 C 10.210938 -0.753906 9.523438 -1.296875 9.109375 -2.046875 C 8.703125 -2.796875 8.457031 -3.476562 8.375 -4.09375 C 8.300781 -4.71875 8.265625 -5.617188 8.265625 -6.796875 L 8.265625 -27.296875 L 5.484375 -27.296875 C 4.148438 -27.398438 3.195312 -27.707031 2.625 -28.21875 C 1.644531 -29.195312 1.15625 -31.078125 1.15625 -33.859375 C 1.15625 -38.085938 2.675781 -40.203125 5.71875 -40.203125 L 8.265625 -40.203125 L 8.265625 -44.296875 C 8.265625 -48.265625 9.679688 -51.859375 12.515625 -55.078125 C 15.359375 -58.304688 19.457031 -59.921875 24.8125 -59.921875 C 26 -59.921875 26.890625 -59.878906 27.484375 -59.796875 C 28.078125 -59.722656 28.757812 -59.476562 29.53125 -59.0625 C 30.925781 -58.394531 31.625 -56.410156 31.625 -53.109375 C 31.625 -50.640625 31.1875 -48.863281 30.3125 -47.78125 C 29.582031 -46.957031 28.445312 -46.492188 26.90625 -46.390625 C 26.4375 -46.390625 25.710938 -46.390625 24.734375 -46.390625 C 22.828125 -46.390625 21.875 -45.742188 21.875 -44.453125 L 21.875 -40.203125 Z M 26.90625 -40.671875 "/></g></g></g><g fill="#000000" fill-opacity="1"><g transform="translate(273.778464, 209.705636)"><g><path d="M 40.96875 -40.28125 C 44.007812 -38.9375 45.53125 -37.3125 45.53125 -35.40625 C 45.53125 -34.476562 45.320312 -33.601562 44.90625 -32.78125 C 44.5 -31.957031 44.296875 -31.519531 44.296875 -31.46875 L 24.046875 13.84375 C 23.628906 14.820312 23.28125 15.566406 23 16.078125 C 22.71875 16.597656 22.265625 17.085938 21.640625 17.546875 C 21.023438 18.015625 20.253906 18.25 19.328125 18.25 C 18.398438 18.25 17.035156 17.863281 15.234375 17.09375 C 12.191406 15.75 10.671875 14.148438 10.671875 12.296875 C 10.671875 11.054688 13.144531 5.15625 18.09375 -5.40625 L 2.703125 -31.3125 C 1.671875 -33.007812 1.15625 -34.269531 1.15625 -35.09375 C 1.15625 -36.75 2.546875 -38.398438 5.328125 -40.046875 C 7.085938 -41.078125 8.457031 -41.59375 9.4375 -41.59375 C 10.414062 -41.59375 11.210938 -41.382812 11.828125 -40.96875 C 12.441406 -40.5625 12.890625 -40.140625 13.171875 -39.703125 C 13.460938 -39.265625 14.882812 -36.867188 17.4375 -32.515625 C 19.988281 -28.160156 22.421875 -24.097656 24.734375 -20.328125 C 24.992188 -21.148438 26.382812 -24.332031 28.90625 -29.875 C 31.4375 -35.414062 32.789062 -38.367188 32.96875 -38.734375 C 33.15625 -39.097656 33.453125 -39.535156 33.859375 -40.046875 C 34.535156 -40.921875 35.476562 -41.359375 36.6875 -41.359375 C 37.894531 -41.359375 39.320312 -41 40.96875 -40.28125 Z M 40.96875 -40.28125 "/></g></g></g><g clip-path="url(#ffda5971da)"><g clip-path="url(#5078f87d89)"><g clip-path="url(#3e3ca5b3cc)"><g clip-path="url(#3c131dbf05)"><path fill="#737677" d="M 320.015625 162.566406 L 313.476562 171.984375 C 313.425781 172.050781 313.34375 172.085938 313.265625 172.078125 C 313.238281 172.074219 313.214844 172.066406 313.191406 172.054688 C 313.183594 172.054688 313.179688 172.050781 313.175781 172.046875 C 313.144531 172.03125 313.121094 172.007812 313.101562 171.980469 C 313.058594 171.917969 313.050781 171.832031 313.089844 171.761719 L 318.34375 161.628906 L 318.53125 161.722656 L 318.769531 161.8125 L 319.339844 162.03125 L 319.761719 162.191406 L 319.789062 162.15625 L 319.953125 162.261719 C 320.054688 162.332031 320.082031 162.46875 320.015625 162.566406 " fill-opacity="1" fill-rule="nonzero"/></g></g></g></g><g clip-path="url(#71ff3dc000)"><g clip-path="url(#fa9d78712f)"><g clip-path="url(#bcff1c1f4a)"><g clip-path="url(#9579a49dfa)"><path fill="#fbd031" d="M 320.210938 151.585938 L 320.234375 151.410156 C 320.191406 151.402344 320.148438 151.398438 320.105469 151.394531 C 320.03125 151.386719 319.953125 151.382812 319.878906 151.375 C 317.65625 151.21875 315.832031 151.921875 314.949219 153.3125 C 314.753906 153.625 314.605469 153.957031 314.511719 154.3125 C 314.234375 155.351562 314.398438 156.558594 315 157.808594 C 315.65625 159.164062 316.773438 160.445312 318.195312 161.488281 C 318.496094 161.710938 318.8125 161.921875 319.136719 162.117188 C 319.203125 162.15625 319.265625 162.195312 319.332031 162.234375 C 319.492188 162.328125 319.65625 162.417969 319.820312 162.503906 C 319.820312 162.503906 319.824219 162.507812 319.828125 162.507812 C 319.941406 162.566406 320.058594 162.625 320.171875 162.683594 C 321.433594 163.296875 322.707031 163.660156 323.890625 163.785156 C 326.167969 164.019531 328.125 163.363281 329.074219 161.863281 C 329.566406 161.09375 329.734375 160.167969 329.59375 159.175781 C 329.476562 158.320312 329.125 157.414062 328.550781 156.519531 C 328.507812 156.453125 328.46875 156.390625 328.425781 156.328125 C 328.402344 156.296875 328.382812 156.265625 328.359375 156.234375 L 328.203125 156.335938 L 320.210938 151.585938 " fill-opacity="1" fill-rule="nonzero"/></g></g></g></g><g clip-path="url(#003ca5b08f)"><g clip-path="url(#99465510cd)"><g clip-path="url(#7983734a4f)"><g clip-path="url(#646ad24dce)"><path fill="#fbd031" d="M 331.207031 149.933594 L 324.167969 145.90625 L 323.996094 145.789062 L 318.890625 153.148438 L 318.875 153.171875 C 318.132812 154.65625 319.902344 156.527344 321.980469 157.726562 C 323.0625 158.347656 324.3125 158.828125 325.378906 158.9375 C 326.300781 159.03125 327.085938 158.851562 327.515625 158.253906 L 331.398438 150.019531 L 331.207031 149.933594 " fill-opacity="1" fill-rule="nonzero"/></g></g></g></g><g clip-path="url(#494fe91bcd)"><g clip-path="url(#098e678b20)"><g clip-path="url(#f1acb21d78)"><g clip-path="url(#4a1643f5a6)"><path fill="#fbd031" d="M 333.324219 149.046875 C 332.929688 149.757812 332.066406 150.148438 330.886719 150.152344 C 330.6875 150.152344 330.480469 150.140625 330.269531 150.121094 C 329.296875 150.019531 328.234375 149.683594 327.222656 149.148438 C 325.992188 148.496094 324.976562 147.628906 324.359375 146.699219 C 323.71875 145.734375 323.582031 144.8125 323.972656 144.101562 C 324.082031 143.910156 324.226562 143.734375 324.40625 143.589844 C 324.867188 143.207031 325.558594 143.003906 326.410156 143 C 327.542969 142.996094 328.84375 143.351562 330.070312 144.003906 C 331.300781 144.652344 332.316406 145.523438 332.933594 146.453125 C 333.324219 147.039062 333.527344 147.609375 333.539062 148.125 C 333.546875 148.460938 333.476562 148.769531 333.324219 149.046875 " fill-opacity="1" fill-rule="nonzero"/></g></g></g></g><g clip-path="url(#dbae4a4091)"><g clip-path="url(#80ad0fd514)"><g clip-path="url(#a5aaf11910)"><g clip-path="url(#cae8696f22)"><g clip-path="url(#fa8ae01522)"><g clip-path="url(#4052db8ae8)"><path fill="#000000" d="M 315.703125 154.25 C 315.683594 154.246094 315.667969 154.242188 315.648438 154.234375 C 315.546875 154.195312 315.5 154.082031 315.542969 153.984375 C 315.964844 153 317.046875 152.207031 318.300781 151.964844 C 318.410156 151.945312 318.511719 152.011719 318.535156 152.117188 C 318.554688 152.222656 318.488281 152.324219 318.378906 152.34375 C 317.269531 152.558594 316.273438 153.277344 315.90625 154.132812 C 315.871094 154.214844 315.789062 154.257812 315.703125 154.25 Z M 322.429688 149.785156 C 322.402344 149.78125 322.371094 149.773438 322.34375 149.757812 C 322.253906 149.699219 322.226562 149.578125 322.285156 149.488281 L 323.660156 147.378906 C 323.71875 147.289062 323.839844 147.265625 323.929688 147.320312 C 324.023438 147.378906 324.050781 147.496094 323.992188 147.585938 L 322.617188 149.699219 C 322.578125 149.761719 322.503906 149.792969 322.429688 149.785156 Z M 325.210938 144.207031 C 325.136719 144.199219 325.070312 144.148438 325.042969 144.078125 C 325.007812 143.976562 325.0625 143.867188 325.164062 143.832031 C 326.484375 143.382812 327.664062 143.503906 328.765625 144.207031 C 328.855469 144.265625 328.882812 144.382812 328.824219 144.472656 C 328.765625 144.5625 328.640625 144.585938 328.550781 144.527344 C 327.558594 143.898438 326.496094 143.789062 325.296875 144.195312 C 325.269531 144.207031 325.238281 144.207031 325.210938 144.207031 Z M 333.148438 148.957031 C 332.875 149.449219 332.335938 149.773438 331.601562 149.898438 C 331.378906 149.9375 331.140625 149.957031 330.886719 149.960938 C 330.878906 149.957031 330.871094 149.957031 330.859375 149.957031 C 330.664062 149.957031 330.46875 149.949219 330.289062 149.929688 C 329.332031 149.832031 328.304688 149.5 327.316406 148.980469 C 326.117188 148.34375 325.125 147.496094 324.527344 146.59375 C 324.4375 146.460938 324.359375 146.328125 324.289062 146.195312 C 324.183594 145.988281 324.101562 145.785156 324.042969 145.589844 C 323.894531 145.070312 323.925781 144.59375 324.148438 144.195312 C 324.246094 144.019531 324.375 143.867188 324.535156 143.734375 C 324.964844 143.382812 325.613281 143.195312 326.410156 143.191406 C 326.605469 143.191406 326.804688 143.203125 327.007812 143.222656 C 327.957031 143.320312 328.992188 143.648438 329.976562 144.171875 C 331.179688 144.808594 332.171875 145.65625 332.769531 146.558594 C 333.132812 147.101562 333.328125 147.644531 333.339844 148.128906 C 333.347656 148.429688 333.285156 148.710938 333.148438 148.957031 Z M 333.734375 148.121094 C 333.722656 147.558594 333.507812 146.964844 333.101562 146.347656 C 332.46875 145.394531 331.425781 144.5 330.164062 143.832031 C 328.910156 143.167969 327.574219 142.804688 326.40625 142.808594 C 325.511719 142.808594 324.777344 143.03125 324.28125 143.441406 C 324.082031 143.601562 323.921875 143.792969 323.800781 144.011719 C 323.503906 144.539062 323.480469 145.175781 323.710938 145.851562 C 323.761719 145.992188 323.820312 146.136719 323.894531 146.28125 C 323.976562 146.453125 324.078125 146.625 324.195312 146.800781 C 324.828125 147.757812 325.871094 148.652344 327.128906 149.316406 C 328.164062 149.863281 329.242188 150.207031 330.25 150.3125 C 330.453125 150.332031 330.667969 150.34375 330.890625 150.34375 C 330.9375 150.34375 330.984375 150.34375 331.03125 150.339844 C 331.1875 150.335938 331.335938 150.324219 331.480469 150.308594 C 332.433594 150.1875 333.140625 149.785156 333.496094 149.140625 C 333.667969 148.832031 333.746094 148.492188 333.734375 148.121094 Z M 331.601562 149.898438 C 331.378906 149.9375 331.140625 149.957031 330.886719 149.960938 C 330.878906 149.957031 330.871094 149.957031 330.859375 149.957031 L 331.109375 150.101562 L 331.136719 150.113281 L 331.03125 150.339844 L 328.359375 156 L 328.113281 156.527344 L 327.34375 158.15625 C 326.898438 158.761719 326.042969 158.8125 325.398438 158.746094 C 324.425781 158.644531 323.21875 158.210938 322.082031 157.558594 C 320.082031 156.410156 318.375 154.636719 319.050781 153.265625 L 319.058594 153.25 L 320.089844 151.765625 L 320.449219 151.242188 L 323.894531 146.28125 L 324.046875 146.058594 L 324.058594 146.0625 L 324.289062 146.195312 C 324.183594 145.988281 324.101562 145.785156 324.042969 145.589844 L 323.941406 145.519531 L 323.710938 145.851562 L 320.007812 151.195312 L 319.75 151.5625 L 318.726562 153.039062 L 318.699219 153.089844 C 317.902344 154.683594 319.722656 156.648438 321.882812 157.890625 C 323.0625 158.570312 324.332031 159.023438 325.359375 159.128906 C 326.4375 159.242188 327.242188 158.976562 327.679688 158.367188 L 328.453125 156.730469 L 328.648438 156.308594 L 331.480469 150.308594 L 331.660156 149.925781 Z M 329.789062 159.152344 C 329.660156 158.226562 329.269531 157.246094 328.648438 156.308594 C 328.605469 156.25 328.566406 156.1875 328.523438 156.125 L 328.410156 155.964844 L 328.359375 156 L 328.113281 156.527344 L 328.191406 156.578125 L 328.304688 156.503906 C 328.355469 156.578125 328.40625 156.652344 328.453125 156.730469 C 328.960938 157.554688 329.285156 158.398438 329.398438 159.203125 C 329.535156 160.15625 329.363281 161.042969 328.90625 161.761719 C 328.019531 163.160156 326.199219 163.828125 323.914062 163.59375 C 322.714844 163.46875 321.453125 163.09375 320.246094 162.503906 C 320.179688 162.46875 320.113281 162.4375 320.050781 162.402344 C 320.003906 162.382812 319.960938 162.359375 319.917969 162.335938 C 319.753906 162.25 319.589844 162.160156 319.425781 162.066406 C 319.363281 162.027344 319.304688 161.992188 319.242188 161.953125 C 319.019531 161.820312 318.804688 161.683594 318.597656 161.539062 C 317.066406 160.480469 315.863281 159.144531 315.179688 157.726562 C 314.601562 156.527344 314.4375 155.363281 314.703125 154.363281 C 314.792969 154.027344 314.933594 153.707031 315.121094 153.414062 C 315.941406 152.117188 317.652344 151.441406 319.75 151.5625 C 319.839844 151.566406 319.925781 151.574219 320.015625 151.582031 L 320 151.710938 L 320.089844 151.765625 L 320.449219 151.242188 L 320.449219 151.238281 L 320.253906 151.21875 C 320.171875 151.207031 320.089844 151.199219 320.007812 151.195312 C 317.65625 150.996094 315.710938 151.742188 314.78125 153.210938 C 314.574219 153.539062 314.417969 153.890625 314.320312 154.265625 C 314.03125 155.351562 314.203125 156.605469 314.820312 157.890625 C 315.496094 159.285156 316.644531 160.597656 318.105469 161.664062 C 318.160156 161.703125 318.210938 161.742188 318.265625 161.78125 C 318.320312 161.816406 318.375 161.855469 318.429688 161.890625 C 318.625 162.027344 318.828125 162.15625 319.035156 162.28125 C 319.253906 162.417969 319.484375 162.542969 319.707031 162.664062 C 319.71875 162.667969 319.726562 162.671875 319.734375 162.675781 C 319.785156 162.703125 319.832031 162.726562 319.882812 162.753906 C 319.945312 162.785156 320.003906 162.8125 320.0625 162.84375 C 321.316406 163.457031 322.625 163.847656 323.871094 163.976562 C 325.078125 164.101562 326.179688 163.976562 327.105469 163.628906 C 328.027344 163.285156 328.765625 162.71875 329.242188 161.964844 C 329.75 161.167969 329.9375 160.195312 329.789062 159.152344 Z M 313.3125 171.875 C 313.304688 171.882812 313.292969 171.886719 313.285156 171.886719 L 313.269531 171.878906 C 313.269531 171.875 313.269531 171.875 313.265625 171.875 C 313.261719 171.867188 313.261719 171.859375 313.265625 171.847656 L 318.429688 161.890625 L 318.433594 161.886719 L 319.839844 162.425781 L 319.84375 162.421875 C 319.855469 162.429688 319.859375 162.449219 319.851562 162.457031 L 319.707031 162.664062 Z M 320.050781 162.402344 C 320.003906 162.382812 319.960938 162.359375 319.917969 162.335938 C 319.753906 162.25 319.589844 162.160156 319.425781 162.066406 C 319.363281 162.027344 319.304688 161.992188 319.242188 161.953125 C 319.019531 161.820312 318.804688 161.683594 318.597656 161.539062 L 318.257812 161.367188 L 318.105469 161.664062 L 312.910156 171.675781 C 312.84375 171.804688 312.855469 171.964844 312.933594 172.078125 C 312.96875 172.132812 313.015625 172.179688 313.070312 172.210938 C 313.078125 172.214844 313.09375 172.226562 313.117188 172.234375 C 313.160156 172.253906 313.203125 172.265625 313.246094 172.269531 C 313.398438 172.285156 313.550781 172.21875 313.640625 172.09375 L 320.0625 162.84375 L 320.179688 162.671875 C 320.214844 162.621094 320.238281 162.5625 320.246094 162.503906 C 320.179688 162.46875 320.113281 162.4375 320.050781 162.402344 " fill-opacity="1" fill-rule="nonzero"/></g></g></g></g></g></g><g fill="#000000" fill-opacity="1"><g transform="translate(37.500002, 212.537624)"><g><path d="M 9 -75.015625 L 65.8125 -75.015625 C 68 -75.015625 69.601562 -74.757812 70.625 -74.25 C 71.644531 -73.738281 72.320312 -72.9375 72.65625 -71.84375 C 73 -70.757812 73.171875 -69.332031 73.171875 -67.5625 C 73.171875 -65.789062 73 -64.375 72.65625 -63.3125 C 72.320312 -62.257812 71.742188 -61.53125 70.921875 -61.125 C 69.703125 -60.507812 67.96875 -60.203125 65.71875 -60.203125 L 46.203125 -60.203125 L 46.203125 -8.796875 C 46.203125 -7.222656 46.148438 -6.0625 46.046875 -5.3125 C 45.941406 -4.5625 45.632812 -3.691406 45.125 -2.703125 C 44.613281 -1.710938 43.707031 -1.015625 42.40625 -0.609375 C 41.113281 -0.203125 39.410156 0 37.296875 0 C 35.191406 0 33.507812 -0.203125 32.25 -0.609375 C 30.988281 -1.015625 30.101562 -1.710938 29.59375 -2.703125 C 29.082031 -3.691406 28.773438 -4.578125 28.671875 -5.359375 C 28.566406 -6.148438 28.515625 -7.328125 28.515625 -8.890625 L 28.515625 -60.203125 L 8.890625 -60.203125 C 6.710938 -60.203125 5.113281 -60.457031 4.09375 -60.96875 C 3.070312 -61.476562 2.390625 -62.273438 2.046875 -63.359375 C 1.703125 -64.453125 1.53125 -65.882812 1.53125 -67.65625 C 1.53125 -69.425781 1.703125 -70.835938 2.046875 -71.890625 C 2.390625 -72.953125 2.96875 -73.6875 3.78125 -74.09375 C 5.007812 -74.707031 6.75 -75.015625 9 -75.015625 Z M 9 -75.015625 "/></g></g></g></svg>